<mxfile host="app.diagrams.net" modified="2023-07-14T03:11:24.474Z" agent="Mozilla/5.0 (Windows NT 10.0; Win64; x64) AppleWebKit/537.36 (KHTML, like Gecko) Chrome/114.0.0.0 Safari/537.36 Edg/114.0.1823.79" etag="qGShmgNuI9ogMpdDMsaD" version="21.6.2" type="github">
  <diagram name="第 1 页" id="Ie8FY1zrAu0CafzOZRVi">
    <mxGraphModel dx="1184" dy="784" grid="1" gridSize="10" guides="1" tooltips="1" connect="1" arrows="1" fold="1" page="1" pageScale="1" pageWidth="827" pageHeight="1169" math="0" shadow="0">
      <root>
        <mxCell id="0" />
        <mxCell id="1" parent="0" />
        <mxCell id="ZQ2SgTZdiyOrQj5Sko5f-1" value="&lt;font face=&quot;Times New Roman&quot; style=&quot;font-size: 18px;&quot;&gt;workbench&lt;/font&gt;" style="rounded=1;whiteSpace=wrap;html=1;" vertex="1" parent="1">
          <mxGeometry x="100" y="170" width="310" height="180" as="geometry" />
        </mxCell>
        <mxCell id="ZQ2SgTZdiyOrQj5Sko5f-4" value="&lt;font face=&quot;Times New Roman&quot; style=&quot;font-size: 18px;&quot;&gt;awblm&lt;/font&gt;" style="rounded=1;whiteSpace=wrap;html=1;fillColor=#ffe6cc;strokeColor=#d79b00;" vertex="1" parent="1">
          <mxGeometry x="470" y="100" width="130" height="40" as="geometry" />
        </mxCell>
        <mxCell id="ZQ2SgTZdiyOrQj5Sko5f-5" value="" style="strokeWidth=2;html=1;shape=mxgraph.flowchart.annotation_2;align=left;labelPosition=right;pointerEvents=1;" vertex="1" parent="1">
          <mxGeometry x="410" y="125" width="50" height="230" as="geometry" />
        </mxCell>
        <mxCell id="ZQ2SgTZdiyOrQj5Sko5f-6" value="&lt;font face=&quot;Times New Roman&quot; style=&quot;font-size: 18px;&quot;&gt;asub&lt;/font&gt;" style="rounded=1;whiteSpace=wrap;html=1;fillColor=#ffe6cc;strokeColor=#d79b00;" vertex="1" parent="1">
          <mxGeometry x="470" y="160" width="130" height="40" as="geometry" />
        </mxCell>
        <mxCell id="ZQ2SgTZdiyOrQj5Sko5f-7" value="&lt;font face=&quot;Times New Roman&quot; style=&quot;font-size: 18px;&quot;&gt;ajob&lt;/font&gt;" style="rounded=1;whiteSpace=wrap;html=1;fillColor=#ffe6cc;strokeColor=#d79b00;" vertex="1" parent="1">
          <mxGeometry x="470" y="220" width="130" height="40" as="geometry" />
        </mxCell>
        <mxCell id="ZQ2SgTZdiyOrQj5Sko5f-8" value="&lt;font face=&quot;Times New Roman&quot; style=&quot;font-size: 18px;&quot;&gt;preprocessor&lt;/font&gt;" style="rounded=1;whiteSpace=wrap;html=1;fillColor=#ffe6cc;strokeColor=#d79b00;" vertex="1" parent="1">
          <mxGeometry x="470" y="280" width="130" height="40" as="geometry" />
        </mxCell>
        <mxCell id="ZQ2SgTZdiyOrQj5Sko5f-9" value="&lt;font face=&quot;Times New Roman&quot; style=&quot;font-size: 18px;&quot;&gt;acleanup&lt;/font&gt;" style="rounded=1;whiteSpace=wrap;html=1;fillColor=#0050ef;strokeColor=#001DBC;fontColor=#ffffff;" vertex="1" parent="1">
          <mxGeometry x="470" y="334" width="130" height="40" as="geometry" />
        </mxCell>
        <mxCell id="ZQ2SgTZdiyOrQj5Sko5f-11" value="&lt;font face=&quot;Times New Roman&quot; style=&quot;font-size: 18px;&quot;&gt;process&lt;/font&gt;" style="rounded=1;whiteSpace=wrap;html=1;fillColor=#ffe6cc;strokeColor=#d79b00;" vertex="1" parent="1">
          <mxGeometry x="620" y="100" width="130" height="40" as="geometry" />
        </mxCell>
        <mxCell id="ZQ2SgTZdiyOrQj5Sko5f-12" value="&lt;font face=&quot;Times New Roman&quot; style=&quot;font-size: 18px;&quot;&gt;device&lt;/font&gt;" style="rounded=1;whiteSpace=wrap;html=1;fillColor=#ffe6cc;strokeColor=#d79b00;" vertex="1" parent="1">
          <mxGeometry x="620" y="160" width="130" height="40" as="geometry" />
        </mxCell>
        <mxCell id="ZQ2SgTZdiyOrQj5Sko5f-13" value="&lt;font face=&quot;Times New Roman&quot; style=&quot;font-size: 18px;&quot;&gt;visual&lt;/font&gt;" style="rounded=1;whiteSpace=wrap;html=1;fillColor=#ffe6cc;strokeColor=#d79b00;" vertex="1" parent="1">
          <mxGeometry x="620" y="220" width="130" height="40" as="geometry" />
        </mxCell>
        <mxCell id="ZQ2SgTZdiyOrQj5Sko5f-14" value="&lt;font face=&quot;Times New Roman&quot; style=&quot;font-size: 18px;&quot;&gt;done&lt;/font&gt;" style="rounded=1;whiteSpace=wrap;html=1;fillColor=#ffe6cc;strokeColor=#d79b00;" vertex="1" parent="1">
          <mxGeometry x="800" width="130" height="40" as="geometry" />
        </mxCell>
        <mxCell id="ZQ2SgTZdiyOrQj5Sko5f-15" value="&lt;font face=&quot;Times New Roman&quot; style=&quot;font-size: 18px;&quot;&gt;doing&lt;/font&gt;" style="rounded=1;whiteSpace=wrap;html=1;fillColor=#0050ef;strokeColor=#001DBC;fontColor=#ffffff;" vertex="1" parent="1">
          <mxGeometry x="800" y="60" width="130" height="40" as="geometry" />
        </mxCell>
      </root>
    </mxGraphModel>
  </diagram>
</mxfile>
